<?xml version="1.0" standalone="no"?><!DOCTYPE svg PUBLIC "-//W3C//DTD SVG 1.1//EN" "http://www.w3.org/Graphics/SVG/1.1/DTD/svg11.dtd"><svg t="1535509336540" class="icon" style="" viewBox="0 0 1024 1024" version="1.1" xmlns="http://www.w3.org/2000/svg" p-id="12160" xmlns:xlink="http://www.w3.org/1999/xlink" width="128" height="128"><defs><style type="text/css"></style></defs><path d="M998.387537 365.005936L565.434835 625.788441c-31.990003 19.130022-71.657607 19.130022-103.64761 0L25.379602 365.005936A52.591565 52.591565 0 0 1 0.04352 319.836051c0-18.554202 9.597001-35.700843 25.336082-45.105904L457.372605 14.651421c31.990003-19.130022 71.657607-19.130022 103.64761 0l437.367322 260.078726a52.591565 52.591565 0 0 1 25.336083 45.105904c0 18.554202-9.597001 35.828803-25.336083 45.169885z"  p-id="12161"></path><path d="M998.387537 476.331147l-46.449484-27.511403-46.385505 26.871602 69.610247 40.627304a4.86248 4.86248 0 0 1 0 8.317401L542.593973 778.828616a56.238425 56.238425 0 0 1-56.686286 0L48.668325 524.188191a4.86248 4.86248 0 0 1 0-8.317401l69.610247-40.947204L71.829087 448.179944l-46.449485 27.703342a50.992065 50.992065 0 0 0 0 88.036489l436.087723 254.128585c31.990003 18.682162 71.657607 18.682162 103.64761 0l433.272602-253.680725a50.992065 50.992065 0 0 0 0-87.972508z"  p-id="12162"></path><path d="M998.387537 668.271165l-46.449484-27.511402-46.385505 26.871602 69.610247 40.627304a4.86248 4.86248 0 0 1 0 8.317401L542.593973 970.768635a56.238425 56.238425 0 0 1-56.686286 0L48.668325 716.12821a4.86248 4.86248 0 0 1 0-8.317401l69.610247-40.947204L71.829087 640.119963l-46.449485 27.703342a50.992065 50.992065 0 0 0 0 88.036489l436.087723 254.128585c31.990003 18.682162 71.657607 18.682162 103.64761 0l433.272602-253.680725a50.992065 50.992065 0 0 0 0-87.972509z" fill="#24292e" p-id="12163"></path></svg>