<?xml version="1.0" standalone="no"?><!DOCTYPE svg PUBLIC "-//W3C//DTD SVG 1.1//EN" "http://www.w3.org/Graphics/SVG/1.1/DTD/svg11.dtd"><svg t="1535508945329" class="icon" style="" viewBox="0 0 1024 1024" version="1.1" xmlns="http://www.w3.org/2000/svg" p-id="7320" xmlns:xlink="http://www.w3.org/1999/xlink" width="128" height="128"><defs><style type="text/css"></style></defs><path d="M36.49536 298.676224h73.101312c20.187136 0 36.49536-14.35648 36.49536-31.90784v-42.733568c0-17.661952-16.308224-32.02048-36.49536-32.02048H36.49536C16.308224 192.014336 0 206.370816 0 223.922176v42.733568c0 17.661952 16.308224 32.02048 36.49536 32.02048z m0 277.366784v-0.114688c-20.187136 0-36.49536-14.24384-36.49536-31.90784V501.28896c0-17.664 16.308224-31.90784 36.49536-31.90784h73.101312c20.187136 0 36.49536 14.24384 36.49536 31.90784v42.73152c0 17.664-16.308224 32.022528-36.49536 32.022528H36.49536zM935.612416 0C984.08448 0 1024 31.793152 1024 70.651904v882.696192C1024 992.206848 984.199168 1024 935.501824 1024H180.525056c-48.582656 0-88.385536-31.793152-88.385536-70.651904v-78.628864h29.88032c26.914816 0 48.812032-19.144704 48.812032-42.733568v-64.04096c0-23.476224-21.897216-42.620928-48.812032-42.620928H92.13952v-127.971328h29.88032c26.914816 0 48.812032-19.144704 48.812032-42.733568v-63.92832c0-23.588864-21.897216-42.733568-48.812032-42.733568H92.13952v-127.971328h29.88032c26.914816 0 48.812032-19.030016 48.812032-42.61888v-64.043008c0-23.588864-21.897216-42.61888-48.812032-42.61888H92.13952V70.651904C92.13952 31.793152 131.9424 0 180.639744 0h754.97472zM607.614976 568.600576v-35.30752h97.6896c25.86624 0 38.797312-12.691456 38.797312-38.074368 0-25.84576-12.931072-38.76864-38.797312-38.76864h-53.348352l83.140608-137.764864c7.389184-12.92288 10.622976-23.420928 9.699328-31.49824-0.923648-8.077312-7.159808-15.806464-18.706432-23.191552-5.081088-3.229696-9.9328-5.883904-14.548992-7.960576-4.620288-2.076672-9.238528-2.768896-13.856768-2.076672-4.620288 0.692224-9.12384 2.998272-13.510656 6.92224-4.388864 3.92192-9.121792 10.037248-14.20288 18.345984a28925.790208 28925.790208 0 0 1-51.269632 86.880256 28926.048256 28926.048256 0 0 0-51.269632 86.882304l-105.30816-175.84128c-8.31488-13.84448-16.975872-21.458944-25.982976-22.843392-9.007104-1.384448-18.82112 1.613824-29.444096 8.998912-9.238528 6.46144-14.897152 14.307328-16.975872 23.537664-2.07872 9.230336 0.577536 19.84512 7.96672 31.8464a68771.844096 68771.844096 0 0 0 42.264576 68.880384 68768.09216 68768.09216 0 0 1 42.262528 68.882432H427.47904c-24.940544 0-37.412864 12.92288-37.412864 38.76864 0 25.382912 12.93312 38.074368 38.79936 38.074368h96.303104v35.30752h-97.6896c-24.940544 0-37.412864 12.92288-37.412864 38.76864 0 25.382912 12.93312 38.074368 38.79936 38.074368h96.303104v80.306176c0 17.997824 3.233792 29.997056 9.699328 35.997696 6.467584 6.00064 17.09056 8.998912 31.870976 8.998912 17.088512 0 28.174336-2.998272 33.255424-8.998912 5.07904-6.00064 7.620608-17.999872 7.620608-35.997696v-80.306176h97.6896c25.86624 0 38.797312-12.691456 38.797312-38.074368 0-25.84576-12.931072-38.76864-38.797312-38.76864h-97.6896zM109.596672 853.295104H36.49536C16.308224 853.295104 0 839.051264 0 821.387264v-42.73152c0-17.664 16.308224-31.90784 36.49536-31.90784h73.101312c20.187136 0 36.49536 14.24384 36.49536 31.90784v42.73152c0 17.664-16.308224 31.90784-36.49536 31.90784z" p-id="7321"></path></svg>