<?xml version="1.0" standalone="no"?><!DOCTYPE svg PUBLIC "-//W3C//DTD SVG 1.1//EN" "http://www.w3.org/Graphics/SVG/1.1/DTD/svg11.dtd"><svg t="1535509783976" class="icon" style="" viewBox="0 0 1024 1024" version="1.1" xmlns="http://www.w3.org/2000/svg" p-id="22005" xmlns:xlink="http://www.w3.org/1999/xlink" width="128" height="128"><defs><style type="text/css"></style></defs><path d="M678.075799 0.180903 678.075799 1.050481C673.759679 1.050481 655.950909-0.471621 611.239211 0.180903L210.240294 0.180903C136.417597 0.180903 76.562711 55.957621 76.562711 124.715602L76.562711 871.961991C76.562711 940.749482 136.417597 996.520303 210.240294 996.520303L811.753382 996.520303C885.542244 996.520303 945.395662 940.749482 945.395662 871.961991L945.395662 249.273883 678.075799 0.180903 678.075799 0.180903ZM711.461726 747.461301 310.496644 747.461301C292.034716 747.461301 277.076879 733.541108 277.076879 716.319877 277.076879 699.100104 292.034716 685.179911 310.496644 685.179911L711.461726 685.179911C729.958959 685.179911 744.910913 699.100104 744.910913 716.319877 744.910913 733.541108 729.958959 747.461301 711.461726 747.461301L711.461726 747.461301ZM711.461726 560.615734 310.496644 560.615734C292.034716 560.615734 277.076879 546.694051 277.076879 529.47431 277.076879 512.318024 292.034716 498.338781 310.496644 498.338781L711.461726 498.338781C729.958959 498.338781 744.910913 512.288515 744.910913 529.47431 744.910913 546.699978 729.958959 560.615734 711.461726 560.615734L711.461726 560.615734ZM744.916797 249.273883C708.019422 249.273883 678.075799 221.374447 678.075799 186.992524L678.075799 62.432753 878.560545 249.245832 744.916797 249.245832 744.916797 249.273883Z" p-id="22006"></path></svg>