<?xml version="1.0" standalone="no"?><!DOCTYPE svg PUBLIC "-//W3C//DTD SVG 1.1//EN" "http://www.w3.org/Graphics/SVG/1.1/DTD/svg11.dtd"><svg t="1535510799967" class="icon" style="" viewBox="0 0 1024 1024" version="1.1" xmlns="http://www.w3.org/2000/svg" p-id="40220" xmlns:xlink="http://www.w3.org/1999/xlink" width="128" height="128"><defs><style type="text/css"></style></defs><path d="M992.198758 845.913043h-146.285715v146.285715c0 12.720497-12.720497 25.440994-25.440993 25.440994h-50.881988c-12.720497 0-25.440994-12.720497-25.440994-25.440994v-146.285715h-146.285714c-12.720497 0-25.440994-12.720497-25.440994-25.440993v-50.881988c0-12.720497 12.720497-25.440994 25.440994-25.440994h146.285714v-146.285714c0-12.720497 12.720497-25.440994 25.440994-25.440994h50.881988c12.720497 0 25.440994 12.720497 25.440993 25.440994v146.285714h146.285715c12.720497 0 25.440994 12.720497 25.440994 25.440994v50.881988c0 12.720497-12.720497 25.440994-25.440994 25.440993z m-25.440994-387.975155h-356.173913c-25.440994 0-50.881988-25.440994-50.881988-50.881987v-356.173913c0-25.440994 25.440994-50.881988 50.881988-50.881988h356.173913c25.440994 0 50.881988 25.440994 50.881988 50.881988v356.173913c0 31.801242-25.440994 50.881988-50.881988 50.881987z m-559.701863 559.701864h-356.173913c-25.440994 0-50.881988-25.440994-50.881988-50.881988v-356.173913c0-25.440994 25.440994-50.881988 50.881988-50.881988h356.173913c25.440994 0 50.881988 25.440994 50.881987 50.881988v356.173913c0 31.801242-25.440994 50.881988-50.881987 50.881988z m0-559.701864h-356.173913c-25.440994 0-50.881988-25.440994-50.881988-50.881987v-356.173913c0-25.440994 25.440994-50.881988 50.881988-50.881988h356.173913c25.440994 0 50.881988 25.440994 50.881987 50.881988v356.173913c0 31.801242-25.440994 50.881988-50.881987 50.881987z"  p-id="40221"></path></svg>