<?xml version="1.0" standalone="no"?><!DOCTYPE svg PUBLIC "-//W3C//DTD SVG 1.1//EN" "http://www.w3.org/Graphics/SVG/1.1/DTD/svg11.dtd"><svg t="1535510907218" class="icon" style="" viewBox="0 0 1024 1024" version="1.1" xmlns="http://www.w3.org/2000/svg" p-id="41172" xmlns:xlink="http://www.w3.org/1999/xlink" width="128" height="128"><defs><style type="text/css"></style></defs><path d="M975.359201 1023.999431h-195.071784a48.526168 48.526168 0 0 1-48.639945-48.753723v-195.071784a48.526168 48.526168 0 0 1 48.639945-48.725279h195.071784c26.851526 0.113778 48.583057 21.902198 48.639946 48.725279v195.071784A48.839057 48.839057 0 0 1 975.359201 1023.999431z m0-365.709816h-195.071784a48.526168 48.526168 0 0 1-48.639945-48.753723V414.720108a48.526168 48.526168 0 0 1 48.639945-48.753724h195.071784c26.851526 0.113778 48.583057 21.902198 48.639946 48.753724v194.559784a48.839057 48.839057 0 0 1-48.639946 49.009723z m0-365.73826h-195.071784a48.526168 48.526168 0 0 1-48.639945-48.725279V48.754292A48.526168 48.526168 0 0 1 780.287417 0.000569h195.071784c26.851526 0.113778 48.583057 21.902198 48.639946 48.753723v195.071784a48.839057 48.839057 0 0 1-48.639946 48.725279zM609.279607 1023.999431h-194.559783a48.92439 48.92439 0 0 1-49.151946-48.753723v-195.071784a48.92439 48.92439 0 0 1 49.151946-48.725279h194.559783a48.92439 48.92439 0 0 1 49.151946 48.725279v195.071784A48.92439 48.92439 0 0 1 609.279607 1023.999431z m0-365.709816H48.64023A48.839057 48.839057 0 0 1 0.000284 609.279892V48.754292A48.839057 48.839057 0 0 1 48.64023 0.000569h560.639377a48.92439 48.92439 0 0 1 49.151946 48.753723V609.279892a48.92439 48.92439 0 0 1-49.151946 49.009723zM48.64023 731.448645h195.071784a48.526168 48.526168 0 0 1 48.639946 48.725279v195.071784A48.526168 48.526168 0 0 1 243.712014 1023.999431H48.64023A48.839057 48.839057 0 0 1 0.000284 975.245708v-195.071784a48.839057 48.839057 0 0 1 48.639946-48.725279z" p-id="41173" ></path></svg>