<?xml version="1.0" standalone="no"?><!DOCTYPE svg PUBLIC "-//W3C//DTD SVG 1.1//EN" "http://www.w3.org/Graphics/SVG/1.1/DTD/svg11.dtd"><svg t="1535510823060" class="icon" style="" viewBox="0 0 1061 1024" version="1.1" xmlns="http://www.w3.org/2000/svg" p-id="40474" xmlns:xlink="http://www.w3.org/1999/xlink" width="132.625" height="128"><defs><style type="text/css"></style></defs><path d="M259.986193 1022.802032c-140.900039 0-255.524814-114.629777-255.524814-255.506057 0-140.917546 114.624775-255.523564 255.524814-255.523564 140.895037 0 255.524814 114.604767 255.524815 255.523564 0 140.87628-114.629777 255.506057-255.524815 255.506057zM643.538519 431.164674c-118.722626 0-215.292849-96.571473-215.292849-215.2941 0-118.723877 96.570223-215.294099 215.292849-215.294099s215.314107 96.570223 215.314107 215.294099c0 118.722626-96.571473 215.294099-215.314107 215.2941zM868.715228 911.008363c-89.507464 0-162.324658-72.797186-162.324658-162.298398 0-89.507464 72.815944-162.30465 162.324658-162.30465 89.483705 0 162.299648 72.797186 162.299649 162.30465 0 89.502462-72.817194 162.298398-162.299649 162.298398z m0-210.852365" fill="" p-id="40475"></path><path d="M495.795807 304.498945L589.592446 368.894099 411.98932 627.578898l-93.79664-64.395154 177.603127-258.684799z m0 0M752.297252 341.32458l122.811724 260.603048-102.935209 48.510199-122.816726-260.603048 102.940211-48.510199z m0 0" fill="" p-id="40476"></path></svg>