<?xml version="1.0" standalone="no"?><!DOCTYPE svg PUBLIC "-//W3C//DTD SVG 1.1//EN" "http://www.w3.org/Graphics/SVG/1.1/DTD/svg11.dtd"><svg t="1535508520090" class="icon" style="" viewBox="0 0 1024 1024" version="1.1" xmlns="http://www.w3.org/2000/svg" p-id="2532" xmlns:xlink="http://www.w3.org/1999/xlink" width="128" height="128"><defs><style type="text/css"></style></defs><path d="M1006.093 214.156l-196.247-196.247c-27.093-27.088-71.019-27.088-98.108 0l-196.253 196.247c-27.088 27.088-27.088 71.013 0 98.102l196.253 196.247c27.088 27.088 71.013 27.088 98.108 0l196.247-196.247c27.093-27.088 27.093-71.008 0-98.102zM760.791 459.456l-196.247-196.247 196.247-196.247 196.247 196.247-196.247 196.247zM344.501 55.067h-277.529c-38.333 0-69.38 31.047-69.38 69.38v277.523c0 38.333 31.053 69.38 69.38 69.38h277.529c38.333 0 69.38-31.047 69.38-69.38v-277.529c0-38.327-31.047-69.375-69.38-69.375zM344.501 610.118h-277.529c-38.333 0-69.38 31.053-69.38 69.38v277.523c0 38.338 31.053 69.387 69.38 69.387h277.529c38.333 0 69.38-31.053 69.38-69.387v-277.523c0-38.338-31.047-69.38-69.38-69.38zM899.553 610.118h-277.523c-38.338 0-69.38 31.053-69.38 69.38v277.523c0 38.338 31.047 69.387 69.38 69.387h277.523c38.338 0 69.38-31.053 69.38-69.387v-277.523c0-38.338-31.047-69.38-69.38-69.38z" fill="" p-id="2533"></path></svg>