<?xml version="1.0" standalone="no"?><!DOCTYPE svg PUBLIC "-//W3C//DTD SVG 1.1//EN" "http://www.w3.org/Graphics/SVG/1.1/DTD/svg11.dtd"><svg class="icon" width="128px" height="128.00px" viewBox="0 0 1024 1024" version="1.1" xmlns="http://www.w3.org/2000/svg"><path   d="M495.06 504.81l-1.77-3.31-1.78 5.08c-16 40.9-33.74 81.8-53.28 120.92l-1.52 3.28 5.08-1.5a1033.23 1033.23 0 0 1 120.77-35.56l4.61-0.89-1.06-0.89c-26.64-26.67-51.51-56.94-71.05-87.13zM832 128H192a64.19 64.19 0 0 0-64 64v640a64.19 64.19 0 0 0 64 64h640a64.19 64.19 0 0 0 64-64V192a64.19 64.19 0 0 0-64-64z m0.51 481.72c0 60.46-58.61 60.46-88.8 60.46-48-3.56-94.13-21.34-131.43-53.35-72.82 16-142.08 39.12-211.35 67.57C345.88 782.21 294.37 832 250 832c-8.88 0-19.54-1.78-26.64-7.12-19.54-8.89-30.19-28.45-30.19-48 0-16 3.55-60.46 172.28-133.37 39.07-71.13 69.27-144 94.13-220.5-21.35-42.68-67.53-147.59-35.58-200.94 10.66-19.56 32-30.23 55.06-28.45a58.88 58.88 0 0 1 46.18 23.12c23.09 32 21.31 99.58-8.88 199.16a536.24 536.24 0 0 0 110.13 142.25c37.3-7.11 74.6-12.45 111.89-12.45 83.48 1.79 95.91 40.91 94.13 64.02z" /></svg>