<?xml version="1.0" standalone="no"?><!DOCTYPE svg PUBLIC "-//W3C//DTD SVG 1.1//EN" "http://www.w3.org/Graphics/SVG/1.1/DTD/svg11.dtd"><svg class="icon" width="128px" height="128.00px" viewBox="0 0 1024 1024" version="1.1" xmlns="http://www.w3.org/2000/svg"><path   d="M832 128H192a64.19 64.19 0 0 0-64 64v640a64.19 64.19 0 0 0 64 64h640a64.19 64.19 0 0 0 64-64V192a64.19 64.19 0 0 0-64-64z m-22 379.25c-13.65 26.85-32.91 50.75-57.26 71.05C705 618.09 642.23 640 576 640H320v192H192V192h384c66.23 0 129 21.91 176.74 61.7 24.35 20.3 43.61 44.2 57.26 71.05a200.07 200.07 0 0 1 0 182.49zM670.79 352c-24.43-20.36-59-32-94.79-32H320v192h256c35.82 0 70.37-11.67 94.79-32 21.42-17.87 33.21-40.59 33.21-64s-11.79-46.13-33.21-64z" /></svg>