<?xml version="1.0" standalone="no"?><!DOCTYPE svg PUBLIC "-//W3C//DTD SVG 1.1//EN" "http://www.w3.org/Graphics/SVG/1.1/DTD/svg11.dtd"><svg t="1535513835505" class="icon" style="" viewBox="0 0 1024 1024" version="1.1" xmlns="http://www.w3.org/2000/svg" p-id="2941" xmlns:xlink="http://www.w3.org/1999/xlink" width="128" height="128"><defs><style type="text/css"></style></defs><path d="M918 190 918 38.568C918 17.266 900.856 0 879.684 0L38.332 0C17.162 0 0 17.266 0 38.568L0 190 918 190z" p-id="2942"></path><path d="M660 860c0-110.282 89.718-200 200-200 20.164 0 39.634 3.012 58 8.586L918 268 0 268l0 671.118C0 960.42 17.162 978 38.332 978l660.292 0C674.356 944.898 660 904.098 660 860zM368.198 860 142.69 860c-12.676 0-22.95-7.45-22.95-18s10.274-18 22.95-18l225.508 0c12.674 0 22.95 7.45 22.95 18S380.872 860 368.198 860z" p-id="2943"></path><path d="M860 696c-90.574 0-164 73.426-164 164s73.426 164 164 164 164-73.426 164-164S950.574 696 860 696zM962.62 882 857.38 882c-8.494 0-15.38-6.886-15.38-15.38l0-105.24c0-8.492 7.504-15.378 16-15.378s16 6.886 16 15.378L874 850l88.62 0c8.494 0 15.38 7.508 15.38 16C978 874.496 971.114 882 962.62 882z" p-id="2944"></path></svg>