<?xml version="1.0" standalone="no"?><!DOCTYPE svg PUBLIC "-//W3C//DTD SVG 1.1//EN" "http://www.w3.org/Graphics/SVG/1.1/DTD/svg11.dtd"><svg t="1535510606923" class="icon" style="" viewBox="0 0 1024 1024" version="1.1" xmlns="http://www.w3.org/2000/svg" p-id="33599" xmlns:xlink="http://www.w3.org/1999/xlink" width="128" height="128"><defs><style type="text/css"></style></defs><path d="M68.266667 214.8352C68.266667 176.878933 98.645333 146.090667 136.260267 146.090667h614.946133c37.546667 0 67.9936 31.197867 67.9936 68.744533v738.9184c0 38.024533-30.378667 68.8128-67.9936 68.8128H136.260267c-37.546667 0-67.9936-31.197867-67.9936-68.8128V214.8352zM443.733333 614.4a102.4 102.4 0 1 0 0-204.8 102.4 102.4 0 0 0 0 204.8z m0 0c-101.444267 0-185.890133 70.4512-204.8 163.84h409.6C629.623467 684.8512 545.1776 614.4 443.733333 614.4z" p-id="33600"></path><path d="M204.8 78.301867C204.8 40.3456 235.178667 9.557333 272.7936 9.557333h614.946133c37.546667 0 67.9936 31.197867 67.9936 68.744534v738.9184c0 38.024533-30.378667 68.8128-67.9936 68.8128H272.7936c-37.546667 0-67.9936-31.197867-67.9936-68.8128V78.301867zM273.066667 68.266667v760.490666h614.4V68.266667H273.066667z" p-id="33601"></path></svg>