<?xml version="1.0" standalone="no"?><!DOCTYPE svg PUBLIC "-//W3C//DTD SVG 1.1//EN" "http://www.w3.org/Graphics/SVG/1.1/DTD/svg11.dtd"><svg t="1535510441809" class="icon" style="" viewBox="0 0 1024 1024" version="1.1" xmlns="http://www.w3.org/2000/svg" p-id="31057" xmlns:xlink="http://www.w3.org/1999/xlink" width="128" height="128"><defs><style type="text/css"></style></defs><path d="M161.9968 0h699.2896c33.3824 1.7408 60.1088 25.7024 67.9936 57.6512v905.6256c-6.0416 33.6896-34.0992 57.5488-67.8912 60.7232H173.2608c-34.7136-0.3072-64.512-23.1424-73.4208-56.5248V58.9824C105.8816 27.7504 130.7648 5.12 161.9968 0z m44.032 51.8144c0.1024 305.664 0.1024 611.4304 0 917.1968 34.2016 0 68.3008-0.1024 102.5024 0-0.1024-305.7664-0.1024-611.5328 0-917.1968-34.2016 0-68.3008 0.1024-102.5024 0z m361.6768 0c0 135.3728-0.1024 270.7456 0 406.2208 34.4064-50.7904 68.7104-101.5808 103.0144-152.3712 34.2016 50.8928 68.608 101.6832 103.0144 152.4736 0.2048-135.4752-0.1024-270.9504 0.1024-406.3232H567.7056z" p-id="31058"></path></svg>