<?xml version="1.0" standalone="no"?><!DOCTYPE svg PUBLIC "-//W3C//DTD SVG 1.1//EN" "http://www.w3.org/Graphics/SVG/1.1/DTD/svg11.dtd"><svg class="icon" width="128px" height="128.00px" viewBox="0 0 1024 1024" version="1.1" xmlns="http://www.w3.org/2000/svg"><path   d="M622.277 39.385H401.723c-13.785 0-23.63 11.815-23.63 25.6v49.23c0 13.785 11.815 25.6 23.63 25.6h220.554c13.785 0 23.63-11.815 23.63-25.6v-49.23c1.97-13.785-9.845-25.6-23.63-25.6z m336.738 0H738.462c-13.785 0-25.6 11.815-25.6 25.6v49.23c0 13.785 11.815 25.6 25.6 25.6h220.553c13.785-1.969 25.6-11.815 25.6-25.6v-49.23c0-13.785-11.815-25.6-25.6-25.6z m0 165.415H334.77c-13.784 0-25.6-11.815-25.6-25.6V64.985c0-13.785-11.815-25.6-25.6-25.6H64.985c-13.785 0-25.6 11.815-25.6 25.6v896c0 11.815 11.815 23.63 25.6 23.63h894.03c13.785 0 25.6-11.815 25.6-25.6V230.4c0-13.785-11.815-25.6-25.6-25.6z"  /></svg>