<?xml version="1.0" standalone="no"?><!DOCTYPE svg PUBLIC "-//W3C//DTD SVG 1.1//EN" "http://www.w3.org/Graphics/SVG/1.1/DTD/svg11.dtd"><svg t="1535509648427" class="icon" style="" viewBox="0 0 1024 1024" version="1.1" xmlns="http://www.w3.org/2000/svg" p-id="19669" xmlns:xlink="http://www.w3.org/1999/xlink" width="128" height="128"><defs><style type="text/css"></style></defs><path d="M398.222222 0l284.444444 0 0 284.444444-284.444444 0 0-284.444444Z" p-id="19670"></path><path d="M739.555556 739.555556l284.444444 0 0 284.444444-284.444444 0 0-284.444444Z" p-id="19671"></path><path d="M398.222222 739.555556l284.444444 0 0 284.444444-284.444444 0 0-284.444444Z" p-id="19672"></path><path d="M56.888889 739.555556l284.444444 0 0 284.444444-284.444444 0 0-284.444444Z" p-id="19673"></path><path d="M568.888889 284.444444 512 284.444444 512 455.111111 170.666667 455.111111 170.666667 739.555556 227.555556 739.555556 227.555556 512 512 512 512 739.555556 568.888889 739.555556 568.888889 512 853.333333 512 853.333333 739.555556 910.222222 739.555556 910.222222 455.111111 568.888889 455.111111Z" p-id="19674"></path></svg>