<?xml version="1.0" standalone="no"?><!DOCTYPE svg PUBLIC "-//W3C//DTD SVG 1.1//EN" "http://www.w3.org/Graphics/SVG/1.1/DTD/svg11.dtd"><svg class="icon" width="128px" height="128.00px" viewBox="0 0 1024 1024" version="1.1" xmlns="http://www.w3.org/2000/svg"><path   d="M619.360855 933.398654c1.37296 0.063998 2.681921 0.191994 4.054881 0.191995H932.697675a65.668076 65.668076 0 0 0 65.604078-65.604078V150.999576a65.668076 65.668076 0 0 0-65.604078-65.604078H623.415736c-1.37296 0-2.71392 0.127996-4.054881 0.190995V0L15.70554 80.573639v858.378853l603.655315 82.652578v-88.207416z m0-810.077267c1.340961-0.191994 2.681921-0.414988 4.054881-0.414988H932.697675c15.515545 0 28.125176 12.609631 28.125176 28.125176v716.986995a28.157175 28.157175 0 0 1-28.125176 28.125176H623.415736c-1.37296 0-2.71392-0.223993-4.054881-0.414988V123.353386zM248.337724 605.441262l-143.914783-3.670892v-23.401314l86.866455-133.251097v-1.180965l-78.917688 1.307962v-36.041944l134.561058-3.511897v26.082235l-87.504437 133.731082v1.148967l88.909395 1.404959v37.350905z m72.403879 1.851946l-44.757688-1.149966V404.958136l44.758688-1.149966v203.486038z m171.081988-92.963276c-16.664512 15.35555-41.149794 22.059354-69.338968 21.867359a113.809666 113.809666 0 0 1-16.121528-1.052969v74.351822l-46.09865-1.181966V405.532119c14.237583-2.809918 34.381993-5.171848 63.178149-5.938826 29.497136-0.765978 50.791512 4.309874 65.188091 15.292552 13.887593 10.439694 23.305317 27.965181 23.305317 48.843569s-7.119791 38.628868-20.079412 50.600518z m-65.923069-79.172681a80.129652 80.129652 0 0 0-19.537427 2.202936v61.390201c4.021882 0.925973 8.969737 1.212964 15.833536 1.212965 25.380256-0.031999 41.214793-12.897622 41.214792-34.47799 0-19.378432-13.631601-30.7111-37.478901-30.296113zM732.213548 138.93193h73.521846v30.329111H732.213548v-30.329111z m-73.553845 45.39667h73.521846v30.35911h-73.521846v-30.35911z m73.553845 49.674544h73.521846v30.359111H732.213548v-30.359111z m0 95.900191h73.521846v30.328111H732.213548v-30.329111z m-73.553845-48.716573h73.521846v30.328112h-73.521846v-30.328112z m72.819867 376.130981a72.787868 72.787868 0 0 0 72.786868-72.817867L790.826831 462.51645c0-40.224822-19.155439-72.818867-59.37926-72.818867s-59.348261 32.594045-59.348261 72.818867l-13.471606 121.982426a72.787868 72.787868 0 0 0 72.819867 72.818867z m-24.103294-133.858079h48.205588v101.838017h-48.205588v-101.837017z"  /></svg>